<?xml version="1.0" encoding="utf-8"?>
<!-- Generator: Adobe Illustrator 19.2.1, SVG Export Plug-In . SVG Version: 6.00 Build 0)  -->
<svg version="1.1" id="Layer_1" xmlns="http://www.w3.org/2000/svg" xmlns:xlink="http://www.w3.org/1999/xlink" x="0px" y="0px"
	 viewBox="0 0 180.2 193.8" style="enable-background:new 0 0 180.2 193.8;" xml:space="preserve">
<style type="text/css">
	.st0{fill:#B7C9CB;}
	.st1{fill:#E8E8E8;}
	.st2{fill:#34495E;}
	.st3{fill:#FFFFFF;}
	.st4{fill:#E67E22;}
	.st5{fill:#E74C3C;}
	.st6{fill:#BDC3C7;}
	.st7{fill:#F39C12;}
	.st8{fill:#27AE60;}
	.st9{fill:#2980B9;}
	.st10{fill:#D35400;}
</style>
<g>
	<path class="st0" d="M78.6,134c-1.8,7-3.5,14.3-5.3,21.3c16.2,0,32.5,0,48.7,0c-1.8-7-3.5-14.3-5.3-21.3C104,134,91.3,134,78.6,134
		z"/>
	<path class="st1" d="M125.1,154.8H70.2c-1.3,0-2.4,1.3-2.4,2.9v1.1h59.7v-1.1C127.5,156.2,126.4,154.8,125.1,154.8z"/>
	<path class="st1" d="M15.4,125.7v11.9c0,2.2,1.8,4.2,4.2,4.2H176c2.2,0,4.2-1.8,4.2-4.2v-11.9H15.4z"/>
	<path class="st2" d="M180,125.7V26c0-2.2-1.8-4.2-4.2-4.2H19.3c-2.2,0-4.2,1.8-4.2,4.2v99.6C15.1,125.7,180,125.7,180,125.7z"/>
	<rect x="21.9" y="28.2" class="st3" width="151.2" height="90.4"/>
	<rect x="38.8" y="103.9" class="st4" width="7" height="9.2"/>
	<rect x="52.7" y="95.6" class="st4" width="7" height="17.6"/>
	<rect x="66.5" y="89.2" class="st4" width="7" height="23.9"/>
	<rect x="80.3" y="94.9" class="st4" width="7" height="18.2"/>
	<rect x="94.2" y="74.3" class="st4" width="7" height="38.8"/>
	<rect x="108" y="81.3" class="st4" width="7" height="31.8"/>
	<rect x="121.8" y="67" class="st4" width="7" height="46.1"/>
	<rect x="135.6" y="54.1" class="st4" width="7" height="59"/>
	<rect x="149.7" y="40.7" class="st4" width="7" height="72.4"/>
	<rect x="32" y="39" class="st5" width="28.3" height="2.6"/>
	<rect x="32" y="45.8" class="st6" width="51.1" height="1.8"/>
	<rect x="32" y="50.8" class="st6" width="43.5" height="1.8"/>
	<rect x="32" y="55.9" class="st6" width="48.1" height="1.8"/>
	<rect x="32" y="60.9" class="st6" width="37.5" height="1.8"/>
	<path class="st5" d="M32,67.5v4.8h16.5v-4.8H32z M45.9,70.6h-11v-1.8h11V70.6z"/>
	<path class="st6" d="M31.4,103.3c-0.2,0-0.4-0.2-0.7-0.4c-0.2-0.4-0.2-0.9,0.2-1.1L70.5,76c0.2-0.2,0.4-0.2,0.9,0l11.9,6.6
		l14.5-22.8c0.2-0.2,0.2-0.2,0.4-0.4c0.2,0,0.4,0,0.7,0.2l12.5,9.7l40.8-35.3c0.2-0.2,0.9-0.2,1.1,0c0.2,0.2,0.2,0.9,0,1.1l-41.5,36
		c-0.2,0.2-0.7,0.2-0.9,0l-12.3-9.4L84.1,84.2c-0.2,0.4-0.7,0.4-1.1,0.2l-12.1-6.8L31.8,103C31.8,103.3,31.6,103.3,31.4,103.3
		L31.4,103.3z"/>
	<circle class="st5" cx="32.5" cy="102.2" r="2.9"/>
	<circle class="st5" cx="70.5" cy="77.1" r="2.9"/>
	<circle class="st5" cx="83.2" cy="83.7" r="2.9"/>
	<circle class="st5" cx="98.3" cy="60.7" r="2.9"/>
	<circle class="st5" cx="111.7" cy="70.8" r="2.9"/>
	<circle class="st5" cx="152.5" cy="34.8" r="2.9"/>
	<g>
		<path class="st2" d="M57.1,94H4c-2.2,0-4,1.8-4,4v70c0,2.2,1.8,4,4,4h53.1c2.2,0,4-1.8,4-4V98C61,95.8,59.3,94,57.1,94z"/>
		<circle class="st3" cx="30.5" cy="168.5" r="1.5"/>
		<rect x="7" y="101.5" class="st3" width="47.2" height="62.8"/>
	</g>
	<g>
		<path class="st7" d="M36.4,134.9c-0.2,0.9-0.7,1.8-1.3,2.4l4.6,6.6c2.4-2,4-4.8,4.6-7.9L36.4,134.9z"/>
		<path class="st8" d="M31.6,126.8c2.6,0.7,4.8,2.9,5,5.7l7.9,0.9v-0.2c0-7.5-5.7-13.6-12.9-14.3C31.6,118.8,31.6,126.8,31.6,126.8z
			"/>
		<path class="st9" d="M25.7,128.7c0.9-0.9,2-1.8,3.5-2v-7.9c-4.2,0.4-7.9,2.6-10.3,5.9L25.7,128.7z"/>
		<path class="st10" d="M32.9,138.8c-0.9,0.4-1.8,0.7-2.6,0.7c-3.5,0-6.4-2.9-6.4-6.4c0-0.7,0.2-1.3,0.4-2l-6.8-4
			c-0.9,1.8-1.3,4-1.3,6.1c0,7.9,6.4,14.3,14.3,14.3c2.6,0,5-0.7,7.2-2L32.9,138.8z"/>
	</g>
	<g>
		<rect x="30.7" y="155.5" class="st0" width="13.6" height="1.1"/>
		<rect x="12.7" y="151.8" class="st0" width="13.6" height="1.1"/>
		<rect x="10.1" y="116" class="st0" width="13.6" height="1.1"/>
		<g>
			<polygon class="st0" points="26.3,153.1 25.9,152.9 27,147.8 27.7,148 			"/>
		</g>
		<g>
			<polygon class="st0" points="24.8,118.8 23,116.2 23.5,116 25.5,118.6 			"/>
		</g>
		<rect x="37.3" y="114.9" class="st0" width="13.6" height="1.1"/>
		<g>
			<polygon class="st0" points="35.6,118.6 35.1,118.4 37.3,114.9 37.8,115.1 			"/>
		</g>
		<g>
			<polygon class="st0" points="43.7,155.9 40.8,143.4 41.5,143.4 44.3,155.7 			"/>
		</g>
	</g>
</g>
</svg>
